PathFileType	4	(X/Y/Z)	C:/Users/beibeiliu/ov580/test_trc/User2\sequence.20_training_dense_right.trc
DataRate	CameraRate	NumFrames	NumMarkers	Units	OrigDataRate	OrigDataStartFrame	OrigNumFrames
120	120	20	19	mm	120	279	318
Frame#	Time	ThumbCMC			ThumbMCP			ThumbIP			ThumbTip			IndexMCP			IndexPIP			IndexTip			MiddleMCP			MiddlePIP			MiddleTip			RingMCP			RingPIP			RingTip			PinkyMCP			PinkyPIP			PinkyTip			BackHand1			BackHand2			BackHand3	
		X0	Y0	Z0	X1	Y1	Z1	X2	Y2	Z2	X3	Y3	Z3	X4	Y4	Z4	X5	Y5	Z5	X6	Y6	Z6	X7	Y7	Z7	X8	Y8	Z8	X9	Y9	Z9	X10	Y10	Z10	X11	Y11	Z11	X12	Y12	Z12	X13	Y13	Z13	X14	Y14	Z14	X15	Y15	Z15	X16	Y16	Z16	X17	Y17	Z17	X18	Y18	Z18	
278	2.31667	144.927	-4.29338	20.7053	142.281	7.69675	-9.935	116.8	24.0579	-30.9425	86.9223	28.4748	-23.8103	92.2379	-4.71903	-46.4149	74.9422	4.65388	-67.7178	56.8423	13.636	-84.0795	66.1913	-8.94206	-40.6928	54.6391	0.0494075	-64.4752	36.9636	6.83956	-89.884	54.2117	-7.12684	-29.7573	39.6135	0.42102	-47.7977	26.7036	10.67	-71.5229	45.1002	-5.87409	-1.42619	31.862	2.81104	-21.8996	22.2315	7.61139	-48.3202	78.3884	-29.2857	20.6727	93.0832	-43.1788	51.1997	118.739	-30.59	16.4608	
279	2.325	145.204	-8.27563	22.1492	146.52	3.03169	-11.2373	121.81	16.7783	-35.6348	91.7232	20.8993	-29.2903	91.8088	-13.7202	-46.5886	76.3182	-6.42967	-70.2743	64.3514	-0.229206	-91.1854	70.5141	-18.1762	-43.1211	55.0549	-11.4979	-70.5522	41.6102	-7.57197	-93.3269	57.0337	-17.2768	-31.4963	42.3443	-11.3263	-51.9752	30.3816	-5.02912	-74.5704	43.5216	-13.6326	-4.44931	33.338	-6.63	-27.2888	27.3162	-6.01475	-52.6253	79.3068	-36.4536	24.2205	96.6707	-45.3733	47.5314	118.604	-36.7893	17.7334	
280	2.33333	146.138	-9.91234	22.8997	146.971	-2.14559	-10.0937	117.292	7.99805	-35.6476	88.4562	12.9342	-32.3461	92.7729	-21.4504	-45.8582	78.8723	-17.0632	-73.9141	63.8299	-10.359	-96.1943	70.1301	-26.2568	-48.1349	56.5604	-21.1828	-69.4276	40.9611	-19.0124	-98.5586	57.9175	-24.6824	-34.6546	46.5608	-21.494	-53.1258	30.3042	-17.5148	-79.0853	47.4221	-21.1661	-5.91325	34.0943	-16.56	-31.1636	28.7013	-15.7685	-56.1931	80.1795	-39.8707	18.6588	94.7135	-47.2947	48.5203	118.598	-37.38	15.982	
281	2.34167	143.442	-12.8422	21.8154	144.029	-6.10195	-12.2783	117.267	2.6521	-34.8855	88.5088	8.25552	-34.7138	94.2831	-26.0814	-45.5815	81.6281	-22.6105	-73.1039	63.6926	-18.478	-92.8849	71.6352	-32.2151	-44.5559	59.7682	-27.0082	-75.1086	41.0903	-25.3831	-98.01	55.9617	-30.9903	-28.6168	44.6642	-27.9381	-55.3102	33.0374	-24.3513	-82.7668	46.9862	-25.362	-6.78448	36.0139	-22.0284	-31.0581	24.4753	-25.0455	-56.2882	80.5471	-41.0843	20.4342	95.744	-47.8212	48.7349	119.458	-40.079	17.6443	
282	2.35	143.088	-11.915	21.8552	145.188	-4.67912	-12.5591	119.83	4.37472	-34.977	89.4479	8.14517	-33.1209	95.286	-24.685	-50.0433	78.3314	-23.3113	-70.9285	60.7208	-17.9854	-93.8205	69.3501	-31.8715	-46.5482	57.389	-27.3562	-74.2463	42.0963	-25.1059	-100.59	55.5366	-31.2341	-33.6285	44.0489	-28.6779	-54.7188	34.5159	-26.6187	-81.0477	46.5461	-27.3092	-5.72505	34.9903	-24.5756	-33.098	29.3044	-25.9021	-56.4026	78.905	-44.5998	22.2089	97.5082	-48.759	51.1559	119.54	-40.5958	16.6962	
283	2.35833	140.815	-8.01507	23.7986	141.004	-0.239201	-10.1931	115.171	9.28013	-31.4698	87.2121	11.341	-27.8532	96.1267	-19.8646	-45.7155	76.6406	-16.2796	-72.5875	61.5682	-10.4588	-95.5796	72.4802	-26.4462	-43.5199	55.8666	-21.2254	-71.5053	40.0157	-18.6625	-98.0503	53.1449	-28.3606	-28.8403	41.96	-24.8916	-53.8442	31.5043	-22.9516	-77.6194	43.5639	-24.9174	-3.40191	31.9993	-21.6386	-28.0186	27.2896	-19.6496	-51.7178	79.1868	-40.1362	21.6679	93.0201	-48.2391	51.7923	118.875	-37.5424	18.984	
284	2.36667	138.839	-3.18538	26.0814	140.34	7.29864	-9.09737	117.085	18.0648	-30.1964	81.9879	20.1517	-27.8733	94.7633	-9.82574	-44.4163	77.8229	-5.09646	-70.3626	60.6795	2.92559	-93.5682	70.2666	-17.1937	-43.8325	55.2583	-10.5986	-71.7978	39.8246	-5.27777	-98.233	52.7016	-20.3014	-30.0397	40.2227	-15.4511	-48.7928	29.8839	-11.5758	-78.1258	45.5369	-16.9333	-6.17932	34.7202	-11.9217	-30.5497	25.5671	-10.2102	-49.6638	76.1988	-35.1538	22.1436	95.0744	-46.0603	51.2821	115.266	-34.138	20.7841	
285	2.375	137.009	1.95883	24.1332	136.927	14.5763	-5.62067	113.038	28.0911	-27.3106	82.7154	29.7118	-21.2208	90.6715	2.16273	-43.7013	70.8084	9.14358	-65.0209	55.9951	18.3602	-87.3561	69.6484	-5.58433	-40.9736	51.8339	4.62835	-68.1592	33.8255	10.4971	-90.7341	49.1736	-8.56141	-27.5069	39.323	-2.94769	-45.4896	23.0595	3.32035	-71.5543	40.7995	-9.73761	-3.63742	30.9175	-2.16151	-26.2694	21.5189	-0.821519	-43.9886	80.2928	-30.3207	21.0008	93.5833	-40.1653	45.0533	117.54	-26.1152	19.4582	
286	2.38333	135.863	9.35346	24.9322	135.484	24.2595	-5.5287	108.603	39.4871	-24.1591	78.2388	40.045	-15.0962	83.5439	13.7231	-38.4589	67.5779	23.1698	-58.3126	49.5635	33.6721	-78.5069	60.4517	6.44465	-38.5543	43.8529	16.7811	-57.7318	27.9425	29.6647	-84.6388	46.6558	1.83006	-23.9733	33.7085	11.1859	-43.1188	21.1899	20.6633	-63.1187	39.6205	-1.50672	4.50535	28.3132	8.25562	-16.9171	16.1203	12.4882	-39.9963	77.2559	-23.1403	24.2603	95.4834	-35.7276	47.5697	117.422	-18.9161	16.1468	
287	2.39167	139.784	15.5929	26.7943	133.721	34.5885	-2.08566	105.352	49.8963	-18.2222	76.9275	47.8646	-5.17114	79.9843	24.4388	-33.9129	63.0156	37.298	-53.922	38.2304	49.0802	-69.8252	60.8387	17.8755	-30.9923	40.0246	30.4483	-49.4839	19.2072	46.152	-74.4053	41.6816	10.5128	-13.8552	27.5624	23.1393	-35.2299	9.12701	33.8285	-56.3027	35.8579	6.70008	9.05013	21.3268	18.3496	-11.443	14.8691	24.3835	-27.1453	75.0146	-19.1165	26.1804	93.278	-30.3921	45.9496	116.44	-9.60236	17.2325	
288	2.4	140.568	21.7092	28.2872	130.808	43.0499	-2.03003	98.1931	59.1556	-11.6332	69.7946	56.7555	1.66142	72.792	34.6025	-27.647	53.8871	46.6318	-43.4872	29.804	62.3426	-57.8652	51.5037	28.1057	-25.8131	30.5623	42.9405	-40.4105	13.4399	57.97	-59.4232	42.2172	20.0911	-6.70679	22.834	32.4712	-22.841	6.88008	47.6969	-44.3603	33.392	13.8172	15.6412	18.7781	23.4915	3.08874	6.94494	36.1185	-20.3644	77.4564	-13.502	29.4369	97.7205	-26.5179	43.4828	112.095	-5.75354	20.9967	
289	2.40833	137.233	24.4321	27.6204	130.507	48.445	1.82334	99.9278	68.5581	-7.66845	72.9841	64.6094	8.28677	71.8393	43.2058	-23.9258	48.441	56.695	-35.2212	29.6478	72.5697	-47.2492	51.3843	36.3953	-18.6706	28.0976	50.9921	-29.2171	5.32223	67.5385	-46.0671	36.0414	29.3643	-1.58141	17.5228	41.2522	-14.1602	0.142279	55.701	-29.8641	30.7151	19.892	21.7595	18.5181	34.5901	8.33452	4.47055	42.1997	-5.06556	73.3231	-8.95303	34.5303	95.2073	-26.1504	49.0667	111.048	-2.15356	17.7598	
290	2.41667	137.374	24.2115	26.6348	127.153	49.8715	2.99072	95.6071	68.4953	-3.18995	68.9128	66.4133	11.2631	67.459	48.1927	-22.8971	44.0747	62.096	-32.2399	26.1633	76.0003	-39.382	45.5751	40.872	-14.5925	25.545	58.147	-26.9601	2.8715	75.5026	-41.1935	36.5807	32.4845	3.63332	16.3119	47.87	-7.59953	0.484573	63.6617	-24.1955	31.0933	21.0994	31.0605	17.8837	40.2718	14.0275	-1.39989	47.6809	0.475273	70.3389	-6.88787	35.2343	92.8659	-24.6963	48.9581	107.609	-0.898771	18.1947	
291	2.425	133.954	21.7366	26.6364	129.713	46.9858	0.579748	100.246	64.9476	-2.94615	70.96	67.3968	9.68953	67.751	44.1818	-21.0119	47.7202	59.2171	-31.2963	26.6026	77.0599	-43.7695	46.939	36.9715	-11.3935	27.3576	57.0458	-26.5051	7.10905	73.4202	-41.9724	33.9107	34.0289	2.59063	19.8138	46.7996	-6.19785	2.64069	66.3926	-24.4049	31.4942	24.286	31.6043	15.6314	40.8458	16.3452	-0.557162	50.0721	1.64363	70.6487	-6.93969	34.8688	92.22	-21.6045	49.4602	107.978	-6.12132	22.1454	
292	2.43333	138.625	16.6356	26.4363	136.709	40.1943	-0.771217	102.61	62.2331	-10.9012	74.9759	64.0069	3.0156	73.8652	35.4695	-24.9073	54.0754	50.506	-39.6224	34.6596	67.5632	-53.0026	50.2266	32.7817	-18.7308	33.4432	48.758	-32.9853	8.70635	65.0013	-50.3036	35.946	28.347	-0.522268	21.4283	46.1856	-16.1205	6.44494	60.566	-28.5194	37.0118	22.9486	26.053	19.1576	40.1353	8.68111	6.81265	49.222	-7.98172	68.8107	-8.05761	32.5817	91.6821	-27.0448	54.2246	108.693	-9.03741	20.9644	
293	2.44167	141.657	11.2693	21.8082	138.507	30.6095	-1.25183	112.302	51.7032	-13.8342	82.0308	59.312	-7.50799	80.2069	24.6803	-31.4069	60.7748	40.3095	-51.4318	45.8421	54.0359	-64.86	57.1009	21.8298	-25.4903	40.2376	39.863	-48.8982	21.5048	51.9947	-66.0249	44.545	22.642	-9.68156	27.4584	38.001	-27.1424	15.4408	54.025	-45.7033	41.162	22.1099	13.4174	27.8616	36.2479	-2.30883	16.2056	44.3946	-18.2598	76.3682	-10.537	31.2346	93.2886	-29.6243	54.6361	115.331	-14.1991	20.967	
294	2.45	146.192	5.44284	23.4085	146.289	23.5791	-6.74902	121.567	43.0651	-20.9991	89.4214	49.1076	-14.4802	87.2065	15.6021	-37.4953	70.8121	28.7478	-61.5267	56.5779	41.766	-76.5559	64.4198	12.5248	-33.8326	46.5286	28.9651	-57.3113	29.3837	39.1553	-78.7323	54.3057	12.8191	-18.1229	36.4706	28.2623	-38.7974	26.4452	42.8237	-60.5409	43.4604	14.2233	7.56934	31.3654	27.487	-12.44	26.2419	34.8442	-33.8969	77.6615	-16.8613	24.7727	98.0228	-30.7243	51.5064	116.999	-21.5746	19.7622	
295	2.45833	152.699	0.0221353	24.4746	150.787	15.4451	-8.41918	126.009	33.863	-27.6607	95.5842	39.5484	-21.0416	97.8855	6.57652	-43.5856	80.0111	17.7924	-67.691	64.1289	29.9424	-86.7249	75.761	3.67094	-40.2187	59.6819	16.1379	-63.7916	41.8644	27.081	-87.9344	59.2639	5.61521	-26.9814	46.019	17.7085	-46.4715	32.2452	30.6525	-68.9647	49.9972	9.96933	-5.55491	39.528	20.672	-24.6166	34.8676	26.836	-43.2845	83.366	-19.261	22.4856	96.4554	-32.9062	46.6185	122.41	-24.4417	15.4377	
296	2.46667	152.092	-3.15075	23.0743	154.149	9.58769	-8.59139	129.59	26.8804	-34.4504	100.009	31.7122	-26.9053	105.499	-0.716632	-47.4939	90.3076	7.21134	-69.3886	73.7119	19.3177	-93.237	79.4935	-3.8398	-46.4883	68.0089	7.05896	-71.8888	50.8929	14.7661	-97.3277	65.7263	-1.04586	-35.4955	54.8519	9.35432	-58.1359	43.6695	19.5777	-78.3582	55.3554	3.35631	-12.628	44.1591	12.7945	-29.5745	36.3853	16.139	-55.8412	86.9383	-22.7954	20.1759	95.753	-34.3928	45.9369	126.922	-29.0582	16.312	
297	2.475	155.752	-4.72828	25.3121	160.118	4.96688	-11.2336	138.245	20.9169	-35.7813	105.42	26.849	-31.7709	108.735	-7.58194	-51.6946	100.087	0.138128	-72.6149	83.7196	10.0656	-100.267	85.6645	-10.5863	-51.8748	76.8232	-1.38916	-80.354	59.0003	4.97248	-100.503	71.7032	-8.13728	-36.9931	62.2289	0.112943	-61.5695	49.0784	7.88241	-86.427	60.8119	-1.80849	-14.5828	50.4785	5.56044	-37.7268	45.125	8.22633	-58.2302	88.4211	-27.4159	17.3839	103.535	-35.9366	43.3239	130.755	-31.9029	16.6951	
